<svg version="1.0" xmlns="http://www.w3.org/2000/svg" class="w-full" width="700.000000pt" height="734.000000pt" viewBox="0 0 700.000000 734.000000" preserveAspectRatio="xMidYMid meet" style="width: 315px;position: absolute;top: -35px;right: -40px;height: 315px; z-index: 10;">
    <g transform="translate(0.000000,734.000000) scale(0.100000,-0.100000)" fill="#{{ $color }}" stroke="none">
        <path d="M3255 7324 c-1373 -104 -2550 -1022 -3037 -2369 -221 -613 -277
        -1324 -157 -1990 193 -1062 840 -1990 1754 -2515 821 -472 1806 -578 2710
        -290 343 109 706 297 998 516 458 343 815 772 1073 1286 500 999 533 2179 90
        3218 -335 784 -951 1438 -1701 1805 -331 163 -688 270 -1060 320 -114 15 -553
        28 -670 19z m600 -759 c736 -103 1393 -498 1848 -1112 305 -412 496 -897 563
        -1428 21 -172 21 -545 0 -710 -75 -584 -283 -1088 -627 -1521 -93 -116 -319
        -344 -434 -437 -284 -229 -638 -415 -980 -512 -210 -60 -527 -105 -734 -105
        -192 1 -472 38 -667 90 -480 127 -890 365 -1250 724 -422 422 -707 962 -812
        1541 -43 233 -47 285 -46 580 0 249 3 311 22 435 104 669 397 1243 868 1700
        150 145 226 207 401 324 396 264 833 413 1318 450 99 8 423 -4 530 -19z" style="opacity: {{ $fullOpacity ? '0.05' : '0.12' }}"></path>
        <path d="M4820 5110 c-193 -21 -390 -106 -548 -235 -51 -42 -92 -81 -92 -88 0
        -7 7 -44 15 -82 8 -39 18 -152 21 -252 4 -101 9 -183 12 -183 2 0 26 20 53 44
        71 64 112 81 195 81 61 0 75 -4 106 -27 69 -53 95 -154 78 -306 -14 -124 -29
        -212 -161 -936 -60 -330 -109 -606 -109 -613 0 -11 80 -13 424 -13 234 0 427
        4 430 8 11 18 289 1565 302 1682 42 378 -12 621 -172 774 -119 114 -331 170
        -554 146z" style="opacity: {{ $fullOpacity ? '0.05' : '0.12' }}"></path>
        <path d="M3300 5094 c-246 -53 -445 -175 -619 -379 l-43 -50 6 55 c23 204 34
        326 30 332 -3 5 -178 8 -389 8 l-385 0 -5 -22 c-3 -13 -18 -111 -35 -218 -36
        -235 -75 -463 -129 -745 -22 -115 -65 -343 -95 -505 -30 -162 -71 -379 -91
        -482 -90 -478 -105 -558 -105 -573 0 -13 50 -15 439 -15 410 0 440 1 445 18 2
        9 18 89 35 177 102 539 145 767 172 898 79 395 229 681 404 770 91 46 185 44
        240 -4 54 -48 68 -96 67 -234 -1 -131 -26 -277 -235 -1380 -24 -126 -42 -233
        -40 -237 2 -5 202 -8 443 -8 l438 0 6 27 c3 16 14 75 25 133 11 58 40 209 65
        335 25 127 59 304 76 395 17 91 35 185 40 210 16 78 69 362 80 430 15 97 13
        517 -4 626 -18 123 -65 211 -155 296 -123 116 -251 159 -475 157 -80 -1 -169
        -7 -206 -15z" style="opacity: {{ $fullOpacity ? '0.05' : '0.2' }}"></path>
    </g>
</svg>